<svg width="33" height="25" viewBox="0 0 33 25" fill="none" xmlns="http://www.w3.org/2000/svg">
<path d="M9.40907 24.1023C7.45452 24.0947 5.77271 23.6136 4.36361 22.6591C2.9621 21.7045 1.88255 20.322 1.12498 18.5114C0.374978 16.7008 0.0037657 14.5227 0.0113415 11.9773C0.0113415 9.4394 0.386341 7.27652 1.13634 5.48864C1.89392 3.70076 2.97346 2.34091 4.37498 1.40909C5.78407 0.469699 7.4621 1.90735e-06 9.40907 1.90735e-06C11.356 1.90735e-06 13.0303 0.469699 14.4318 1.40909C15.8409 2.34849 16.9242 3.71212 17.6818 5.5C18.4394 7.28031 18.8144 9.4394 18.8068 11.9773C18.8068 14.5303 18.428 16.7121 17.6704 18.5227C16.9204 20.3333 15.8447 21.7159 14.4432 22.6705C13.0416 23.625 11.3636 24.1023 9.40907 24.1023ZM9.40907 20.0227C10.7424 20.0227 11.8068 19.3523 12.6023 18.0114C13.3977 16.6705 13.7916 14.6591 13.7841 11.9773C13.7841 10.2121 13.6023 8.74243 13.2386 7.56818C12.8826 6.39394 12.375 5.51137 11.7159 4.92046C11.0644 4.32955 10.2954 4.03409 9.40907 4.03409C8.08331 4.03409 7.02271 4.69697 6.22725 6.02273C5.4318 7.34849 5.03028 9.33334 5.02271 11.9773C5.02271 13.7652 5.20074 15.2576 5.5568 16.4545C5.92043 17.6439 6.4318 18.5379 7.09089 19.1364C7.74998 19.7273 8.52271 20.0227 9.40907 20.0227ZM32.4403 0.318184V23.5909H27.5199V4.98864H27.3835L22.054 8.32955V3.96591L27.8153 0.318184H32.4403Z" fill="#F15D51"/>
</svg>
