<svg width="39" height="25" viewBox="0 0 39 25" fill="none" xmlns="http://www.w3.org/2000/svg">
<path d="M9.40907 24.1022C7.45452 24.0947 5.77271 23.6136 4.36361 22.6591C2.9621 21.7045 1.88255 20.3219 1.12498 18.5113C0.374978 16.7007 0.0037657 14.5227 0.0113415 11.9772C0.0113415 9.43937 0.386341 7.27649 1.13634 5.48861C1.89392 3.70073 2.97346 2.34088 4.37498 1.40906C5.78407 0.469669 7.4621 -2.86102e-05 9.40907 -2.86102e-05C11.356 -2.86102e-05 13.0303 0.469669 14.4318 1.40906C15.8409 2.34846 16.9242 3.71209 17.6818 5.49997C18.4394 7.28027 18.8144 9.43937 18.8068 11.9772C18.8068 14.5303 18.428 16.7121 17.6704 18.5227C16.9204 20.3333 15.8447 21.7159 14.4432 22.6704C13.0416 23.625 11.3636 24.1022 9.40907 24.1022ZM9.40907 20.0227C10.7424 20.0227 11.8068 19.3522 12.6023 18.0113C13.3977 16.6704 13.7916 14.6591 13.7841 11.9772C13.7841 10.2121 13.6023 8.7424 13.2386 7.56815C12.8826 6.39391 12.375 5.51133 11.7159 4.92043C11.0644 4.32952 10.2954 4.03406 9.40907 4.03406C8.08331 4.03406 7.02271 4.69694 6.22725 6.0227C5.4318 7.34846 5.03028 9.33331 5.02271 11.9772C5.02271 13.7651 5.20074 15.2575 5.5568 16.4545C5.92043 17.6439 6.4318 18.5379 7.09089 19.1363C7.74998 19.7272 8.52271 20.0227 9.40907 20.0227ZM22.3153 23.5909V20.0454L30.5994 12.375C31.304 11.6932 31.8949 11.0795 32.3721 10.5341C32.857 9.98861 33.2244 9.45452 33.4744 8.93179C33.7244 8.40149 33.8494 7.82952 33.8494 7.21588C33.8494 6.53406 33.6941 5.94694 33.3835 5.45452C33.0729 4.95452 32.6487 4.57194 32.1108 4.30679C31.5729 4.03406 30.963 3.8977 30.2812 3.8977C29.5691 3.8977 28.9479 4.04164 28.4176 4.32952C27.8873 4.6174 27.4782 5.03027 27.1903 5.56815C26.9024 6.10603 26.7585 6.74618 26.7585 7.48861H22.088C22.088 5.96588 22.4327 4.64391 23.1221 3.5227C23.8115 2.40149 24.7774 1.53406 26.0199 0.920425C27.2623 0.306789 28.6941 -2.86102e-05 30.3153 -2.86102e-05C31.982 -2.86102e-05 33.4327 0.295426 34.6676 0.886335C35.91 1.46967 36.8759 2.28027 37.5653 3.31815C38.2547 4.35603 38.5994 5.54543 38.5994 6.88634C38.5994 7.76512 38.4252 8.63255 38.0767 9.48861C37.7358 10.3447 37.1259 11.2954 36.2471 12.3409C35.3683 13.3788 34.1297 14.625 32.5312 16.0795L29.1335 19.4091V19.5682H38.9062V23.5909H22.3153Z" fill="#F15D51"/>
</svg>
