<svg width="40" height="25" viewBox="0 0 40 25" fill="none" xmlns="http://www.w3.org/2000/svg">
<path d="M9.40907 24.1022C7.45452 24.0947 5.77271 23.6136 4.36361 22.6591C2.9621 21.7045 1.88255 20.3219 1.12498 18.5113C0.374978 16.7007 0.0037657 14.5227 0.0113415 11.9772C0.0113415 9.43937 0.386341 7.27649 1.13634 5.48861C1.89392 3.70073 2.97346 2.34088 4.37498 1.40906C5.78407 0.469669 7.4621 -2.86102e-05 9.40907 -2.86102e-05C11.356 -2.86102e-05 13.0303 0.469669 14.4318 1.40906C15.8409 2.34846 16.9242 3.71209 17.6818 5.49997C18.4394 7.28027 18.8144 9.43937 18.8068 11.9772C18.8068 14.5303 18.428 16.7121 17.6704 18.5227C16.9204 20.3333 15.8447 21.7159 14.4432 22.6704C13.0416 23.625 11.3636 24.1022 9.40907 24.1022ZM9.40907 20.0227C10.7424 20.0227 11.8068 19.3522 12.6023 18.0113C13.3977 16.6704 13.7916 14.6591 13.7841 11.9772C13.7841 10.2121 13.6023 8.7424 13.2386 7.56815C12.8826 6.39391 12.375 5.51133 11.7159 4.92043C11.0644 4.32952 10.2954 4.03406 9.40907 4.03406C8.08331 4.03406 7.02271 4.69694 6.22725 6.0227C5.4318 7.34846 5.03028 9.33331 5.02271 11.9772C5.02271 13.7651 5.20074 15.2575 5.5568 16.4545C5.92043 17.6439 6.4318 18.5379 7.09089 19.1363C7.74998 19.7272 8.52271 20.0227 9.40907 20.0227ZM30.9176 23.9091C29.2206 23.9091 27.7093 23.6174 26.3835 23.0341C25.0653 22.4432 24.0237 21.6325 23.2585 20.6022C22.5009 19.5644 22.1108 18.3674 22.088 17.0113H27.0426C27.0729 17.5795 27.2585 18.0795 27.5994 18.5113C27.9479 18.9356 28.41 19.2651 28.9858 19.5C29.5615 19.7348 30.2093 19.8522 30.929 19.8522C31.679 19.8522 32.3418 19.7197 32.9176 19.4545C33.4933 19.1894 33.9441 18.8219 34.2699 18.3522C34.5956 17.8825 34.7585 17.3409 34.7585 16.7272C34.7585 16.106 34.5843 15.5568 34.2358 15.0795C33.8949 14.5947 33.4024 14.2159 32.7585 13.9432C32.1221 13.6704 31.3646 13.5341 30.4858 13.5341H28.3153V9.92043H30.4858C31.2282 9.92043 31.8835 9.79164 32.4517 9.53406C33.0274 9.27649 33.4744 8.92043 33.7926 8.46588C34.1108 8.00376 34.2699 7.46588 34.2699 6.85225C34.2699 6.26891 34.1297 5.75755 33.8494 5.31815C33.5767 4.87118 33.1903 4.5227 32.6903 4.2727C32.1979 4.0227 31.6221 3.8977 30.963 3.8977C30.2964 3.8977 29.6865 4.01891 29.1335 4.26134C28.5805 4.49618 28.1373 4.8333 27.804 5.2727C27.4706 5.71209 27.2926 6.22724 27.2699 6.81815H22.554C22.5767 5.47724 22.9593 4.29543 23.7017 3.2727C24.4441 2.24997 25.4441 1.45073 26.7017 0.874971C27.9668 0.291638 29.3949 -2.86102e-05 30.9858 -2.86102e-05C32.5918 -2.86102e-05 33.9971 0.291638 35.2017 0.874971C36.4062 1.4583 37.3418 2.24618 38.0085 3.23861C38.6827 4.22346 39.0161 5.32952 39.0085 6.55679C39.0161 7.85982 38.6108 8.94694 37.7926 9.81815C36.982 10.6894 35.9252 11.2424 34.6221 11.4772V11.6591C36.3343 11.8788 37.6373 12.4735 38.5312 13.4432C39.4327 14.4053 39.8797 15.6098 39.8721 17.0568C39.8797 18.3825 39.4971 19.5606 38.7244 20.5909C37.9593 21.6212 36.9024 22.4318 35.554 23.0227C34.2055 23.6136 32.66 23.9091 30.9176 23.9091Z" fill="#F15D51"/>
</svg>
